<svg xmlns="http://www.w3.org/2000/svg" width="400" height="400" viewBox="0 0 400 400">
  <g transform="translate(0 -652.362)">
    <path stroke="#000" stroke-width="3" stroke-opacity=".98" d="M18.536 670.248H387.11v366.104H18.536z"/>
    <ellipse cx="201.765" cy="849.321" rx="130.415" ry="128.445" fill="#fff" fill-rule="evenodd" stroke="#fff" stroke-opacity=".899"/>
    <path d="M189.987 977.237c-.695-.117-3.308-.46-5.808-.763-22.206-2.688-46.11-12.816-64.146-27.177-44.177-35.178-60.223-94.07-39.84-146.223 15.41-39.437 50.578-69.488 92.215-78.802 26.2-5.86 53.896-3.742 78.064 5.97 17.09 6.87 31.575 16.482 44.572 29.58 17.9 18.038 29.564 39.926 34.595 64.92 1.92 9.533 2.435 16.35 2.13 28.205-.413 16.096-2.666 27.653-8.19 42-13.777 35.795-44.11 64.366-81.065 76.358-5.432 1.763-15.055 4.026-21.213 4.99-5.022.784-28.115 1.48-31.315.942z" stroke="#fff" stroke-width="1.515" stroke-opacity=".899"/>
  </g>
</svg>
