<svg xmlns="http://www.w3.org/2000/svg" width="400" height="400" viewBox="0 0 400 400">
  <g transform="translate(0 -652.362)">
    <path stroke="#000" stroke-width="3" stroke-opacity=".98" d="M18.536 670.248H387.11v366.104H18.536z"/>
    <path d="M354.923 863.415c-.115.694-.454 3.308-.752 5.808-2.65 22.206-12.64 46.112-26.802 64.148-34.695 44.18-92.777 60.226-144.213 39.844-38.895-15.413-68.533-50.582-77.718-92.22-5.78-26.203-3.692-53.9 5.888-78.07 6.774-17.09 16.254-31.575 29.172-44.572 17.79-17.9 39.378-29.565 64.027-34.597 9.403-1.92 16.127-2.434 27.82-2.13 15.872.414 27.27 2.668 41.42 8.19 35.304 13.78 63.482 44.113 75.31 81.07 1.737 5.432 3.97 15.055 4.92 21.214.774 5.02 1.46 28.115.93 31.315z" stroke="#fff" stroke-width="1.505" stroke-opacity=".899"/>
    <ellipse transform="skewY(-.262)" ry="129.493" rx="110.252" cy="853.975" cx="244.699" fill="#fff" fill-rule="evenodd" stroke="#fff" stroke-width=".923" stroke-opacity=".899"/>
  </g>
</svg>
